<svg xmlns="http://www.w3.org/2000/svg" viewBox="-359.0181756675152 -89.469446 843.2270684675152 202.02778" width="843.2270684675152mm" height="202.02778mm">
<g transform="scale(1,-1)">
<path d="M 0.0,0.0 L 448.0,0.0 L 448.0,3.5 L 0.0,3.5 Z" stroke="rgb(0,0,0)" stroke-width="0.5" fill="none"/>
<path d="M 0.0,-46.5 L 448.0,-46.5 L 448.0,3.5 L 0.0,3.5 Z" stroke="rgb(0,0,0)" stroke-width="0.5" fill="none"/>
<path d="M 0,3.5 L 195,22" stroke="rgb(0,0,0)" stroke-width="0.5" fill="none" stroke-dasharray="5,3"/>
<path d="M 195,22 L 448,3.5" stroke="rgb(0,0,0)" stroke-width="0.5" fill="none" stroke-dasharray="5,3"/>
<path d="M 195,22 L 195,42" stroke="rgb(0,0,0)" stroke-width="0.5" fill="none"/>
<path d="M 0,0 L 0,18" stroke="rgb(0,0,0)" stroke-width="0.5" fill="none"/>
<path d="M 0,18 L -309.70746187938033,2.461256721689244" stroke="rgb(0,0,0)" stroke-width="0.5" fill="none"/>
<path d="M -309.70746187938033,2.461256721689244 L -309.70746187938033,2.461256721689244" stroke="rgb(0,0,0)" stroke-width="0.5" fill="none" stroke-dasharray="5,3"/>
<path d="M -309.70746187938033,2.461256721689244 L -309.70746187938033,2.461256721689244" stroke="rgb(0,0,0)" stroke-width="0.5" fill="none" stroke-dasharray="5,3"/>
<path d="M -309.70746187938033,2.461256721689244 L -309.70746187938033,2.461256721689244" stroke="rgb(0,0,0)" stroke-width="0.5" fill="none" stroke-dasharray="5,3"/>
<path d="M -309.70746187938033,2.461256721689244 L -309.70746187938033,2.461256721689244" stroke="rgb(0,0,0)" stroke-width="0.5" fill="none" stroke-dasharray="5,3"/>
<path d="M -309.70746187938033,2.461256721689244 L -309.70746187938033,2.461256721689244" stroke="rgb(0,0,0)" stroke-width="0.5" fill="none" stroke-dasharray="5,3"/>
<path d="M -309.70746187938033,2.461256721689244 L -309.70746187938033,2.461256721689244" stroke="rgb(0,0,0)" stroke-width="0.5" fill="none" stroke-dasharray="5,3"/>
<path d="M -309.70746187938033,2.461256721689244 L -309.70746187938033,2.461256721689244" stroke="rgb(0,0,0)" stroke-width="0.5" fill="none" stroke-dasharray="5,3"/>
<path d="M -309.70746187938033,2.461256721689244 L -309.70746187938033,2.461256721689244" stroke="rgb(0,0,0)" stroke-width="0.5" fill="none" stroke-dasharray="5,3"/>
<path d="M -11.984924882178753,17.3986884596712 L -11.812827856061098,15.88881596181978" stroke="rgb(255,0,0)" stroke-width="0.5" fill="none" stroke-dasharray="5,3"/>
<path d="M -11.812827856061098,15.88881596181978 L -11.45128815308442,14.412800586107814" stroke="rgb(255,0,0)" stroke-width="0.5" fill="none" stroke-dasharray="5,3"/>
<path d="M -11.45128815308442,14.412800586107814 L -10.906103796377234,12.994313235664253" stroke="rgb(255,0,0)" stroke-width="0.5" fill="none" stroke-dasharray="5,3"/>
<path d="M -10.906103796377234,12.994313235664253 L -10.18601792392266,11.656102234940548" stroke="rgb(255,0,0)" stroke-width="0.5" fill="none" stroke-dasharray="5,3"/>
<path d="M -10.18601792392266,11.656102234940548 L -9.30257857459067,10.419628514144797" stroke="rgb(255,0,0)" stroke-width="0.5" fill="none" stroke-dasharray="5,3"/>
<path d="M -9.30257857459067,10.419628514144797 L -8.269953491890217,9.304721439656298" stroke="rgb(255,0,0)" stroke-width="0.5" fill="none" stroke-dasharray="5,3"/>
<path d="M -8.269953491890217,9.304721439656298 L -7.104702915438958,8.329260809878432" stroke="rgb(255,0,0)" stroke-width="0.5" fill="none" stroke-dasharray="5,3"/>
<path d="M -7.104702915438958,8.329260809878432 L -5.82551400390071,7.508890116372019" stroke="rgb(255,0,0)" stroke-width="0.5" fill="none" stroke-dasharray="5,3"/>
<path d="M -5.82551400390071,7.508890116372019 L -4.4529011484579115,6.8567656687090075" stroke="rgb(255,0,0)" stroke-width="0.5" fill="none" stroke-dasharray="5,3"/>
<path d="M -4.4529011484579115,6.8567656687090075 L -3.0088769829011115,6.383345606338807" stroke="rgb(255,0,0)" stroke-width="0.5" fill="none" stroke-dasharray="5,3"/>
<path d="M -3.0088769829011115,6.383345606338807 L -1.5165993663564705,6.096222181090276" stroke="rgb(255,0,0)" stroke-width="0.5" fill="none" stroke-dasharray="5,3"/>
<path d="M -1.5165993663564705,6.096222181090276 L 7.347880794884119e-16,6.0" stroke="rgb(255,0,0)" stroke-width="0.5" fill="none" stroke-dasharray="5,3"/>
<text x="0" y="0" font-family="Roboto, Arial, sans-serif" font-size="2.822224" fill="rgb(255,0,0)" text-anchor="middle" dominant-baseline="middle" transform="translate(-15.420747144852262 4.826106459695368) scale(1 -1)">87.1°</text>
<path d="M -309.70746187938033,2.461256721689244 L 109.76490899687604,23.50716063319728" stroke="rgb(0,0,0)" stroke-width="0.5" fill="none"/>
<path d="M -309.70746187938033,2.461256721689244 L -310.0131285790475,8.553593536796775" stroke="rgb(0,0,0)" stroke-width="0.5" fill="none"/>
<path d="M -310.0131285790475,8.553593536796775 L 109.4592422972089,29.599497448304813" stroke="rgb(0,0,0)" stroke-width="0.5" fill="none"/>
<path d="M 109.76490899687604,23.50716063319728 L 109.4592422972089,29.599497448304813" stroke="rgb(0,0,0)" stroke-width="0.5" fill="none"/>
<path d="M 0,0 L -330.0132112170475,0" stroke="rgb(0,0,0)" stroke-width="0.5" fill="none" stroke-dasharray="2,2"/>
<path d="M -310.0132112170475,9.138448792265677 L 249.0217773589999,42" stroke="rgb(0,0,0)" stroke-width="0.5" fill="none"/>
<path d="M -330.0132112170475,0 L -335.0132112170475,0" stroke="rgb(255,0,0)" stroke-width="0.5" fill="none"/>
<path d="M -330.0132112170475,9.138448792265677 L -335.0132112170475,9.138448792265677" stroke="rgb(255,0,0)" stroke-width="0.5" fill="none"/>
<path d="M -338.0132112170475,0 L -338.0132112170475,9.138448792265677" stroke="rgb(255,0,0)" stroke-width="0.5" fill="none" stroke-dasharray="5,3"/>
<path d="M -338.0132112170475,0 L -339.0181756675152,-2.8266670220059744" stroke="rgb(255,0,0)" stroke-width="0.5" fill="none"/>
<path d="M -338.0132112170475,0 L -337.0082467665798,-2.8266670220059744" stroke="rgb(255,0,0)" stroke-width="0.5" fill="none"/>
<path d="M -338.0132112170475,9.138448792265677 L -337.0082467665798,11.965115814271652" stroke="rgb(255,0,0)" stroke-width="0.5" fill="none"/>
<path d="M -338.0132112170475,9.138448792265677 L -339.0181756675152,11.965115814271652" stroke="rgb(255,0,0)" stroke-width="0.5" fill="none"/>
<text x="0" y="0" font-family="Roboto, Arial, sans-serif" font-size="2.822224" fill="rgb(255,0,0)" text-anchor="middle" dominant-baseline="middle" transform="translate(-335.1909872170475 4.569224396132839) scale(1 -1)">9.1</text>
<path d="M -310.0132112170475,9.138448792265677 L -310.7760686557985,22.11604674135249" stroke="rgb(255,0,0)" stroke-width="0.5" fill="none"/>
<path d="M 249.0217773589999,42 L 248.25891992024893,54.977597949086814" stroke="rgb(255,0,0)" stroke-width="0.5" fill="none"/>
<path d="M -310.60002463147134,19.12121644540938 L 248.43496394457608,51.9827676531437" stroke="rgb(255,0,0)" stroke-width="0.5" fill="none" stroke-dasharray="5,3"/>
<path d="M -310.60002463147134,19.12121644540938 L -313.48079330487565,19.95857649361597" stroke="rgb(255,0,0)" stroke-width="0.5" fill="none"/>
<path d="M -310.60002463147134,19.12121644540938 L -313.3628479807649,17.95211117187828" stroke="rgb(255,0,0)" stroke-width="0.5" fill="none"/>
<path d="M 248.43496394457608,51.9827676531437 L 251.31573261798036,51.14540760493711" stroke="rgb(255,0,0)" stroke-width="0.5" fill="none"/>
<path d="M 248.43496394457608,51.9827676531437 L 251.19778729386965,53.151872926674805" stroke="rgb(255,0,0)" stroke-width="0.5" fill="none"/>
<text x="0" y="0" font-family="Roboto, Arial, sans-serif" font-size="2.822224" fill="rgb(255,0,0)" text-anchor="middle" dominant-baseline="middle" transform="translate(-31.165336288533073 36.960672372132834) scale(1 -1) rotate(-3.364125815667669)">560.0 Calculated</text>
<path d="M -310.0132112170475,9.138448792265677 L -311.3628820702223,32.0988143944962" stroke="rgb(255,0,0)" stroke-width="0.5" fill="none"/>
<path d="M -0.46832421815418,27.3343137436107 L -1.8179950713289825,50.294679345841224" stroke="rgb(255,0,0)" stroke-width="0.5" fill="none"/>
<path d="M -311.1868380458952,29.103984098553088 L -1.6419510470018344,47.299849049898114" stroke="rgb(255,0,0)" stroke-width="0.5" fill="none" stroke-dasharray="5,3"/>
<path d="M -311.1868380458952,29.103984098553088 L -314.0676067192995,29.941344146759675" stroke="rgb(255,0,0)" stroke-width="0.5" fill="none"/>
<path d="M -311.1868380458952,29.103984098553088 L -313.94966139518874,27.934878825021986" stroke="rgb(255,0,0)" stroke-width="0.5" fill="none"/>
<path d="M -1.6419510470018344,47.299849049898114 L 1.2388176264024462,46.46248900169152" stroke="rgb(255,0,0)" stroke-width="0.5" fill="none"/>
<path d="M -1.6419510470018344,47.299849049898114 L 1.1208723022917415,48.468954323429216" stroke="rgb(255,0,0)" stroke-width="0.5" fill="none"/>
<text x="0" y="0" font-family="Roboto, Arial, sans-serif" font-size="2.822224" fill="rgb(255,0,0)" text-anchor="middle" dominant-baseline="middle" transform="translate(-156.49720049153396 39.61059689708189) scale(1 -1) rotate(-3.364125815667668)">310.1</text>
<path d="M 109.66918654683602,29.610030839324573 L 120.66918654683602,29.610030839324573" stroke="rgb(255,0,0)" stroke-width="0.5" fill="none"/>
<path d="M 109.66918654683602,33.796141204132795 L 120.66918654683602,33.796141204132795" stroke="rgb(255,0,0)" stroke-width="0.5" fill="none"/>
<path d="M 117.66918654683602,29.610030839324573 L 117.66918654683602,33.796141204132795" stroke="rgb(255,0,0)" stroke-width="0.5" fill="none" stroke-dasharray="5,3"/>
<path d="M 117.66918654683602,29.610030839324573 L 116.6642220963683,26.783363817318598" stroke="rgb(255,0,0)" stroke-width="0.5" fill="none"/>
<path d="M 117.66918654683602,29.610030839324573 L 118.67415099730373,26.783363817318598" stroke="rgb(255,0,0)" stroke-width="0.5" fill="none"/>
<path d="M 117.66918654683602,33.796141204132795 L 118.67415099730373,36.62280822613877" stroke="rgb(255,0,0)" stroke-width="0.5" fill="none"/>
<path d="M 117.66918654683602,33.796141204132795 L 116.6642220963683,36.62280822613877" stroke="rgb(255,0,0)" stroke-width="0.5" fill="none"/>
<text x="0" y="0" font-family="Roboto, Arial, sans-serif" font-size="2.822224" fill="rgb(255,0,0)" text-anchor="middle" dominant-baseline="middle" transform="translate(120.49141054683602 31.703086021728684) scale(1 -1)">4.2</text>
<path d="M -309.70746187938033,2.461256721689244 L -309.70746187938033,-4.538743278310756" stroke="rgb(255,0,0)" stroke-width="0.5" fill="none"/>
<path d="M 0,2.461256721689244 L 0,-4.538743278310756" stroke="rgb(255,0,0)" stroke-width="0.5" fill="none"/>
<path d="M -309.70746187938033,-7.538743278310756 L 0,-7.538743278310756" stroke="rgb(255,0,0)" stroke-width="0.5" fill="none" stroke-dasharray="5,3"/>
<path d="M -309.70746187938033,-7.538743278310756 L -312.5341289013863,-6.533778827843041" stroke="rgb(255,0,0)" stroke-width="0.5" fill="none"/>
<path d="M -309.70746187938033,-7.538743278310756 L -312.5341289013863,-8.543707728778472" stroke="rgb(255,0,0)" stroke-width="0.5" fill="none"/>
<path d="M 0,-7.538743278310756 L 2.8266670220059744,-8.543707728778472" stroke="rgb(255,0,0)" stroke-width="0.5" fill="none"/>
<path d="M 0,-7.538743278310756 L 2.8266670220059744,-6.533778827843041" stroke="rgb(255,0,0)" stroke-width="0.5" fill="none"/>
<text x="0" y="0" font-family="Roboto, Arial, sans-serif" font-size="2.822224" fill="rgb(255,0,0)" text-anchor="middle" dominant-baseline="middle" transform="translate(-164.85373093969017 -10.360967278310756) scale(1 -1)">309.7</text>
<path d="M 195,0 L 206,0" stroke="rgb(255,0,0)" stroke-width="0.5" fill="none"/>
<path d="M 195,22 L 206,22" stroke="rgb(255,0,0)" stroke-width="0.5" fill="none"/>
<path d="M 203,0 L 203,22" stroke="rgb(255,0,0)" stroke-width="0.5" fill="none" stroke-dasharray="5,3"/>
<path d="M 203,0 L 201.99503554953228,-2.8266670220059744" stroke="rgb(255,0,0)" stroke-width="0.5" fill="none"/>
<path d="M 203,0 L 204.00496445046772,-2.8266670220059744" stroke="rgb(255,0,0)" stroke-width="0.5" fill="none"/>
<path d="M 203,22 L 204.00496445046772,24.826667022005974" stroke="rgb(255,0,0)" stroke-width="0.5" fill="none"/>
<path d="M 203,22 L 201.99503554953228,24.826667022005974" stroke="rgb(255,0,0)" stroke-width="0.5" fill="none"/>
<text x="0" y="0" font-family="Roboto, Arial, sans-serif" font-size="2.822224" fill="rgb(255,0,0)" text-anchor="middle" dominant-baseline="middle" transform="translate(205.822224 11.0) scale(1 -1)">22.0</text>
<path d="M 0,-46.5 L 0,-58.5" stroke="rgb(255,0,0)" stroke-width="0.5" fill="none"/>
<path d="M 195,-46.5 L 195,-58.5" stroke="rgb(255,0,0)" stroke-width="0.5" fill="none"/>
<path d="M 0,-61.5 L 195,-61.5" stroke="rgb(255,0,0)" stroke-width="0.5" fill="none" stroke-dasharray="5,3"/>
<path d="M 0,-61.5 L -2.8266670220059744,-60.49503554953228" stroke="rgb(255,0,0)" stroke-width="0.5" fill="none"/>
<path d="M 0,-61.5 L -2.8266670220059744,-62.50496445046772" stroke="rgb(255,0,0)" stroke-width="0.5" fill="none"/>
<path d="M 195,-61.5 L 197.82666702200598,-62.50496445046772" stroke="rgb(255,0,0)" stroke-width="0.5" fill="none"/>
<path d="M 195,-61.5 L 197.82666702200598,-60.49503554953228" stroke="rgb(255,0,0)" stroke-width="0.5" fill="none"/>
<text x="0" y="0" font-family="Roboto, Arial, sans-serif" font-size="2.822224" fill="rgb(255,0,0)" text-anchor="middle" dominant-baseline="middle" transform="translate(87.5 -64.322224) scale(1 -1)">195.0</text>
<path d="M 0,-46.5 L 0,-73.5" stroke="rgb(255,0,0)" stroke-width="0.5" fill="none"/>
<path d="M 448,-46.5 L 448,-73.5" stroke="rgb(255,0,0)" stroke-width="0.5" fill="none"/>
<path d="M 0,-76.5 L 448,-76.5" stroke="rgb(255,0,0)" stroke-width="0.5" fill="none" stroke-dasharray="5,3"/>
<path d="M 0,-76.5 L -2.8266670220059744,-75.49503554953229" stroke="rgb(255,0,0)" stroke-width="0.5" fill="none"/>
<path d="M 0,-76.5 L -2.8266670220059744,-77.50496445046771" stroke="rgb(255,0,0)" stroke-width="0.5" fill="none"/>
<path d="M 448,-76.5 L 450.82666702200595,-77.50496445046771" stroke="rgb(255,0,0)" stroke-width="0.5" fill="none"/>
<path d="M 448,-76.5 L 450.82666702200595,-75.49503554953229" stroke="rgb(255,0,0)" stroke-width="0.5" fill="none"/>
<text x="0" y="0" font-family="Roboto, Arial, sans-serif" font-size="2.822224" fill="rgb(255,0,0)" text-anchor="middle" dominant-baseline="middle" transform="translate(214.0 -79.322224) scale(1 -1)">448.0</text>
<path d="M 458,3.5 L 458,-46.5" stroke="rgb(255,0,0)" stroke-width="0.5" fill="none" stroke-dasharray="5,3"/>
<path d="M 458,3.5 L 459.0049644504677,6.326667022005974" stroke="rgb(255,0,0)" stroke-width="0.5" fill="none"/>
<path d="M 458,3.5 L 456.9950355495323,6.326667022005974" stroke="rgb(255,0,0)" stroke-width="0.5" fill="none"/>
<path d="M 458,-46.5 L 456.9950355495323,-49.32666702200598" stroke="rgb(255,0,0)" stroke-width="0.5" fill="none"/>
<path d="M 458,-46.5 L 459.0049644504677,-49.32666702200598" stroke="rgb(255,0,0)" stroke-width="0.5" fill="none"/>
<text x="0" y="0" font-family="Roboto, Arial, sans-serif" font-size="2.822224" fill="rgb(255,0,0)" text-anchor="middle" dominant-baseline="middle" transform="translate(460.822224 -21.5) scale(1 -1)">50.0</text>
<path d="M 458,0 L 458,3.5" stroke="rgb(255,0,0)" stroke-width="0.5" fill="none" stroke-dasharray="5,3"/>
<path d="M 458,0 L 456.9950355495323,-2.8266670220059744" stroke="rgb(255,0,0)" stroke-width="0.5" fill="none"/>
<path d="M 458,0 L 459.0049644504677,-2.8266670220059744" stroke="rgb(255,0,0)" stroke-width="0.5" fill="none"/>
<path d="M 458,3.5 L 459.0049644504677,6.326667022005974" stroke="rgb(255,0,0)" stroke-width="0.5" fill="none"/>
<path d="M 458,3.5 L 456.9950355495323,6.326667022005974" stroke="rgb(255,0,0)" stroke-width="0.5" fill="none"/>
<text x="0" y="0" font-family="Roboto, Arial, sans-serif" font-size="2.822224" fill="rgb(255,0,0)" text-anchor="middle" dominant-baseline="middle" transform="translate(460.822224 1.75) scale(1 -1)">3.5</text>
<path d="M 195,22 L 213,22" stroke="rgb(255,0,0)" stroke-width="0.5" fill="none"/>
<path d="M 195,42 L 213,42" stroke="rgb(255,0,0)" stroke-width="0.5" fill="none"/>
<path d="M 210,22 L 210,42" stroke="rgb(255,0,0)" stroke-width="0.5" fill="none" stroke-dasharray="5,3"/>
<path d="M 210,22 L 208.99503554953228,19.173332977994026" stroke="rgb(255,0,0)" stroke-width="0.5" fill="none"/>
<path d="M 210,22 L 211.00496445046772,19.173332977994026" stroke="rgb(255,0,0)" stroke-width="0.5" fill="none"/>
<path d="M 210,42 L 211.00496445046772,44.82666702200598" stroke="rgb(255,0,0)" stroke-width="0.5" fill="none"/>
<path d="M 210,42 L 208.99503554953228,44.82666702200598" stroke="rgb(255,0,0)" stroke-width="0.5" fill="none"/>
<text x="0" y="0" font-family="Roboto, Arial, sans-serif" font-size="2.822224" fill="rgb(255,0,0)" text-anchor="middle" dominant-baseline="middle" transform="translate(212.822224 32.0) scale(1 -1)">20.0</text>
<text x="0" y="0" font-family="Roboto, Arial, sans-serif" font-size="4.938892" fill="rgb(0,0,255)" text-anchor="middle" dominant-baseline="middle" transform="translate(189.9216452 67) scale(1 -1)">Archtop Octave Mandolin</text>
<text x="0" y="0" font-family="Roboto, Arial, sans-serif" font-size="2.1166679999999998" fill="rgb(0,0,255)" text-anchor="middle" dominant-baseline="middle" transform="translate(0 -91.5) scale(1 -1)">Generated by https://github.com/pzfreo/diagram-creator</text>
</g>
</svg>